PathFileType	4	(X/Y/Z)	C:/Users/opensim2020/Desktop/walking_exp_matlab/subject03_walking04_straight_04.trc																																																																																																																																																							
DataRate	CameraRate	NumFrames	NumMarkers	Units	OrigDataRate	OrigDataStartFrame	OrigNumFrames																																																																																																																																																			
100	100	7	51	mm	100	3099	293																																																																																																																																																			
Frame#	Time	LFHD			RFHD			LBHD			RBHD			C7			T10			CLAV			STRN			RBAK			LSHO			LUPA			LELB			LFRM			LWRA			LWRB			LFIN			RSHO			RUPA			RELB			RFRM			RWRA			RWRB			RFIN			LASI			RASI			LPSI			RPSI			LTHI			LKNE			LTIB			LANK			LHEE			LTOE			RTHI			RKNE			RTIB			RANK			RHEE			RTOE			*39			*40			*41			*42			*43			*44			*45			*46			*47			*48			*49			*50		
		X1	Y1	Z1	X2	Y2	Z2	X3	Y3	Z3	X4	Y4	Z4	X5	Y5	Z5	X6	Y6	Z6	X7	Y7	Z7	X8	Y8	Z8	X9	Y9	Z9	X10	Y10	Z10	X11	Y11	Z11	X12	Y12	Z12	X13	Y13	Z13	X14	Y14	Z14	X15	Y15	Z15	X16	Y16	Z16	X17	Y17	Z17	X18	Y18	Z18	X19	Y19	Z19	X20	Y20	Z20	X21	Y21	Z21	X22	Y22	Z22	X23	Y23	Z23	X24	Y24	Z24	X25	Y25	Z25	X26	Y26	Z26	X27	Y27	Z27	X28	Y28	Z28	X29	Y29	Z29	X30	Y30	Z30	X31	Y31	Z31	X32	Y32	Z32	X33	Y33	Z33	X34	Y34	Z34	X35	Y35	Z35	X36	Y36	Z36	X37	Y37	Z37	X38	Y38	Z38	X39	Y39	Z39	X40	Y40	Z40	X41	Y41	Z41	X42	Y42	Z42	X43	Y43	Z43	X44	Y44	Z44	X45	Y45	Z45	X46	Y46	Z46	X47	Y47	Z47	X48	Y48	Z48	X49	Y49	Z49	X50	Y50	Z50	X51	Y51	Z51
																																																																																																																																																										
74	0.73	-854.91254	1631.09839	-1663.72375	-874.65125	1634.953	-1532.3147	-976.50238	1571.70313	-1676.83838	-991.11627	1576.34265	-1546.95996	-1004.06024	1420.46533	-1608.94824	-1029.69983	1106.58398	-1610.81421	-877.05334	1349.73474	-1607.27271	-831.10327	1185.59387	-1616.57153	-1047.69421	1244.1792	-1509.2782	-920.89673	1387.55933	-1763.07837	-920.12018	1190.80554	-1836.51221	-904.23553	1068.45215	-1849.58594	-868.10382	943.41321	-1849.66602	-841.55444	826.7663	-1820.10693	-862.34991	831.15356	-1872.15479	-841.50873	749.23419	-1863.51477	-921.0816	1369.79333	-1448.43591	-888.32678	1148.53784	-1377.6554	-855.41742	1040.55652	-1367.97607	-817.14648	909.21277	-1370.26672	-776.9696	820.20209	-1411.12036	-800.6745	810.41028	-1363.39075	-766.61957	745.21063	-1376.44824	-856.11243	947.53882	-1729.2511	-853.97516	949.13226	-1492.03601	-1018.659	960.96411	-1680.1626	-1015.78925	974.55951	-1530.56274	-840.55096	648.203	-1782.83679	-783.32251	477.49664	-1759.88	-912.66504	329.95871	-1758.50269	-1042.5946	167.60779	-1720.68408	-1097.14026	160.55788	-1681.43921	-945.16003	57.91354	-1699.09619	-908.05688	650.85089	-1460.70386	-900.6413	471.72571	-1503.39075	-951.9292	287.27518	-1504.75989	-986.19745	75.06273	-1561.10657	-1030.83459	44.13841	-1611.40918	-844.37646	37.25223	-1577.37305	-950.70923	1682.02515	-1625.81018	NaN	NaN	NaN	NaN	NaN	NaN	NaN	NaN	NaN	NaN	NaN	NaN	NaN	NaN	NaN	NaN	NaN	NaN	NaN	NaN	NaN	NaN	NaN	NaN	NaN	NaN	NaN	NaN	NaN	NaN	NaN	NaN	NaN
75	0.74	-846.49664	1630.8822	-1664.13928	-866.08954	1634.93433	-1532.69556	-968.28412	1571.61194	-1677.17102	-982.47925	1576.34546	-1547.03394	-995.61041	1420.42725	-1608.71021	-1021.51678	1106.52991	-1610.10547	-868.60718	1349.60535	-1607.3656	-822.41815	1185.53442	-1616.38513	-1038.8175	1244.30493	-1508.32874	-913.14783	1387.21863	-1763.15784	-914.68134	1190.3241	-1836.73157	-900.37061	1067.87976	-1850.11816	-865.30652	942.49725	-1850.62683	-839.41412	825.61768	-1821.47314	-860.96558	830.27057	-1873.13025	-840.38177	748.40894	-1864.85999	-911.99249	1370.15002	-1448.44836	-876.87311	1149.52747	-1377.1344	-842.60016	1042.11182	-1367.21313	-801.95599	911.52478	-1369.75928	-760.57874	823.15082	-1411.0603	-783.61462	813.06165	-1363.14722	-748.83362	748.59595	-1376.53418	-847.78546	947.73193	-1728.61621	-846.33527	948.63184	-1491.4928	-1010.45667	960.80377	-1680.15112	-1007.89038	974.25049	-1530.35693	-828.13727	649.49426	-1781.77368	-768.52313	479.7933	-1757.70544	-892.64197	327.00082	-1757.02051	-1016.04181	159.22368	-1719.67432	-1070.26257	148.96802	-1680.45093	-912.63794	55.45155	-1698.26965	-901.927	650.40662	-1461.01331	-896.44708	471.48859	-1502.95654	-949.70789	287.35419	-1504.67163	-985.93219	75.58646	-1561.24243	-1030.255	44.96663	-1611.64282	-844.26025	37.17689	-1577.31128	-942.34851	1682.28088	-1626.26208	NaN	NaN	NaN	NaN	NaN	NaN	NaN	NaN	NaN	NaN	NaN	NaN	NaN	NaN	NaN	NaN	NaN	NaN	NaN	NaN	NaN	NaN	NaN	NaN	NaN	NaN	NaN	NaN	NaN	NaN	NaN	NaN	NaN
76	0.75	-838.05969	1630.5929	-1664.55042	-857.54889	1634.83191	-1533.1145	-959.74829	1571.27771	-1677.1438	-973.63312	1576.12195	-1546.82776	-987.12164	1420.29614	-1608.43738	-1013.3183	1106.43799	-1609.47827	-860.20453	1349.43274	-1607.50195	-814.54871	1185.19482	-1616.30322	-1030.08459	1244.48621	-1507.55054	-905.48334	1386.82397	-1763.26038	-909.13458	1189.78198	-1836.89514	-896.39227	1067.16858	-1850.6499	-862.53107	941.53632	-1851.62781	-837.08057	824.46088	-1822.88135	-859.42072	829.26093	-1874.14441	-839.51398	747.25531	-1866.40369	-902.93616	1370.35181	-1448.56311	-865.49066	1150.40662	-1376.57996	-829.90216	1043.48108	-1366.41638	-786.76593	913.66486	-1369.2948	-743.67847	826.29669	-1410.6864	-766.70868	815.49548	-1362.98218	-730.54456	751.60706	-1376.60229	-839.23987	947.91357	-1728.03955	-838.99237	948.15936	-1491.15381	-1002.19604	960.63959	-1680.21777	-1000.12421	973.97723	-1530.28564	-815.5639	650.5152	-1780.58472	-754.33636	481.8306	-1755.5387	-872.93195	323.9545	-1755.59705	-988.81232	150.69031	-1718.50293	-1042.59546	137.2693	-1679.22668	-879.90991	52.83567	-1697.61377	-896.37854	650.06836	-1460.66833	-892.3681	471.15884	-1502.72546	-947.38177	287.43384	-1504.67932	-985.73676	75.84483	-1561.34558	-1030.12427	45.63412	-1611.78796	-843.94171	37.2757	-1577.4082	-933.60754	1681.64819	-1626.40454	NaN	NaN	NaN	NaN	NaN	NaN	NaN	NaN	NaN	NaN	NaN	NaN	NaN	NaN	NaN	NaN	NaN	NaN	NaN	NaN	NaN	NaN	NaN	NaN	NaN	NaN	NaN	NaN	NaN	NaN	NaN	NaN	NaN
77	0.76	-829.62494	1630.25964	-1665.03052	-848.93866	1634.75513	-1533.53333	-951.35413	1570.93237	-1677.34375	-965.29529	1576.0918	-1547.35742	-978.62683	1420.10083	-1608.21741	-1005.14355	1106.25342	-1609.00159	-851.69733	1349.25	-1607.63171	-806.20844	1184.92273	-1616.18103	-1021.29724	1244.44739	-1506.73071	-897.67218	1386.31628	-1763.39233	-903.4696	1189.19409	-1837.1438	-892.3186	1066.48682	-1851.19421	-859.68085	940.52606	-1852.65247	-834.61755	823.3764	-1824.323	-857.85596	828.22437	-1875.06653	-838.35278	746.15399	-1867.66162	-893.77081	1370.41736	-1448.57654	-854.27612	1151.15601	-1376.05505	-817.32373	1044.76306	-1365.71887	-771.94135	915.67151	-1368.83521	-727.18317	829.30621	-1410.52368	-750.09668	817.89014	-1362.91016	-712.89374	754.55151	-1376.79663	-830.74475	948.08997	-1727.5033	-831.33984	947.63757	-1490.68188	-993.92303	960.37036	-1680.28064	-992.55475	973.62323	-1530.37451	-803.8158	651.6377	-1779.71545	-741.02734	483.71799	-1753.50574	-853.53699	320.73792	-1753.93323	-961.14368	142.03436	-1717.20129	-1014.37811	125.74999	-1677.79126	-846.92426	50.72716	-1697.3385	-891.18945	649.836	-1460.11877	-888.30927	470.79568	-1502.5249	-945.10413	287.52539	-1504.6521	-985.35864	76.47132	-1561.39661	-1029.97693	46.35396	-1611.93579	-843.90918	37.18251	-1577.37585	-925.38104	1681.86121	-1627.0896	NaN	NaN	NaN	NaN	NaN	NaN	NaN	NaN	NaN	NaN	NaN	NaN	NaN	NaN	NaN	NaN	NaN	NaN	NaN	NaN	NaN	NaN	NaN	NaN	NaN	NaN	NaN	NaN	NaN	NaN	NaN	NaN	NaN
78	0.77	-821.18481	1629.87988	-1665.51025	-840.37128	1634.60474	-1534.00806	-942.91431	1570.48035	-1677.58069	-956.53595	1575.79028	-1547.27502	-970.14301	1419.85071	-1608.06799	-996.92072	1106.08459	-1608.72852	-843.23547	1348.92395	-1607.73096	-797.62878	1184.6698	-1615.93469	-1012.57111	1244.46448	-1506.03845	-889.75897	1385.7887	-1763.54846	-897.64655	1188.5072	-1837.2865	-887.89075	1065.56335	-1851.58398	-856.68719	939.51434	-1853.61316	-832.0174	822.31757	-1825.76697	-856.15259	827.13287	-1875.98254	-837.03223	745.00879	-1868.77625	-885.0061	1370.56665	-1448.74365	-843.12537	1151.79309	-1375.54907	-804.76379	1045.92004	-1365.06018	-757.04706	917.68292	-1368.51172	-711.09863	832.34174	-1410.72449	-733.65234	820.2077	-1362.95667	-695.57477	757.57983	-1377.06287	-822.21442	948.13721	-1726.92859	-823.74042	947.13086	-1490.28613	-985.61499	960.14954	-1680.48206	-984.88739	973.29077	-1530.6095	-792.30963	652.6283	-1778.97681	-728.47327	485.30695	-1751.60901	-834.45068	317.44604	-1752.32764	-932.94354	133.41586	-1715.72852	-985.2514	114.09135	-1676.29333	-813.55444	48.86854	-1696.60938	-885.638	649.46234	-1460.19922	-884.27771	470.48563	-1502.42212	-942.92072	287.67371	-1504.65308	-985.02039	76.87103	-1561.50684	-1029.71326	47.08245	-1612.08289	-843.85468	37.06132	-1577.27722	-916.88538	1681.42407	-1627.50159	NaN	NaN	NaN	NaN	NaN	NaN	NaN	NaN	NaN	NaN	NaN	NaN	NaN	NaN	NaN	NaN	NaN	NaN	NaN	NaN	NaN	NaN	NaN	NaN	NaN	NaN	NaN	NaN	NaN	NaN	NaN	NaN	NaN
79	0.78	-812.68274	1629.36536	-1665.98376	-831.78888	1634.41016	-1534.4519	-934.45618	1569.93811	-1677.8031	-948.27429	1575.67871	-1547.91687	-961.54987	1419.58618	-1607.92224	-988.66498	1105.88989	-1608.63269	-834.63208	1348.53186	-1607.86768	-788.53973	1184.29175	-1615.77759	-1003.83667	1244.45593	-1505.50146	-881.77802	1385.16614	-1763.69922	-891.68359	1187.8501	-1837.52429	-883.58984	1065.01477	-1852.18896	-853.53357	938.52374	-1854.55188	-829.32788	821.27197	-1827.24011	-854.33362	826.09442	-1876.82556	-835.69482	743.85193	-1869.80432	-875.70117	1370.27734	-1448.75208	-832.08972	1152.33496	-1375.10449	-792.4682	1046.92981	-1364.45093	-742.36023	919.62463	-1368.34912	-695.48846	835.11798	-1410.99133	-717.51929	822.43854	-1363.07312	-678.17664	760.54315	-1377.45422	-813.58801	947.98016	-1726.47449	-817.11432	946.35474	-1489.67529	-977.23315	959.90424	-1680.80872	-977.06628	972.95355	-1530.8927	-781.10461	653.55518	-1778.4718	-716.6723	486.54865	-1749.83264	-815.81342	314.15433	-1750.94788	-903.83972	124.2993	-1713.78931	-954.89795	102.40251	-1674.30762	-780.55103	47.56777	-1696.21741	-880.08405	649.12183	-1460.20251	-880.31171	470.16666	-1502.39148	-940.71356	287.82297	-1504.72278	-984.60498	77.40094	-1561.50281	-1029.52649	47.94637	-1612.26685	-844.00623	37.07853	-1577.04346	-908.43829	1681.08093	-1627.95776	NaN	NaN	NaN	NaN	NaN	NaN	NaN	NaN	NaN	NaN	NaN	NaN	NaN	NaN	NaN	NaN	NaN	NaN	NaN	NaN	NaN	NaN	NaN	NaN	NaN	NaN	NaN	NaN	NaN	NaN	NaN	NaN	NaN
80	0.79	-804.24164	1628.90356	-1666.49829	-823.06439	1634.12439	-1534.9353	-925.93439	1569.26941	-1677.97522	-939.21838	1575.1261	-1547.65369	-952.87402	1419.21777	-1607.77954	-980.41144	1105.58582	-1608.63306	-825.9668	1348.06555	-1607.97754	-780.72919	1183.63953	-1615.62891	-995.05646	1244.32654	-1504.98608	-873.60394	1384.51245	-1763.87512	-885.6153	1187.17017	-1837.71753	-878.96649	1064.29102	-1852.63208	-850.20532	937.48834	-1855.34839	-826.85217	819.95343	-1828.02637	-852.30859	824.98895	-1877.56628	-834.104	742.70898	-1870.63489	-866.65302	1370.06665	-1448.78003	-821.17615	1152.81274	-1374.67493	-780.14679	1047.90027	-1364.00671	-728.07416	921.41467	-1368.17346	-679.61987	837.89032	-1411.00977	-701.60889	824.64532	-1363.33472	-661.34698	763.54883	-1377.99915	-805.04486	947.745	-1726.07593	-808.88525	945.97076	-1489.40247	-968.91528	959.62311	-1681.23816	-969.20459	972.58392	-1531.25183	-770.34021	654.15668	-1778.03796	-705.68182	487.4801	-1748.25793	-797.32043	310.67734	-1749.39001	-875.34595	116.83598	-1712.55603	-924.04474	90.82099	-1672.23315	-747.1402	46.64446	-1695.09509	-874.51208	648.75848	-1460.22424	-876.35608	469.8775	-1502.32446	-938.62909	288.04587	-1504.76294	-984.42194	78.03436	-1561.63171	-1029.34521	48.88799	-1612.50012	-843.96265	37.03939	-1576.9574	-900.0224	1680.5592	-1628.49548	NaN	NaN	NaN	NaN	NaN	NaN	NaN	NaN	NaN	NaN	NaN	NaN	NaN	NaN	NaN	NaN	NaN	NaN	NaN	NaN	NaN	NaN	NaN	NaN	NaN	NaN	NaN	NaN	NaN	NaN	NaN	NaN	NaN
